<svg width="1200" height="800" xmlns="http://www.w3.org/2000/svg">
  <defs>
    <marker id="arrowhead" markerWidth="10" markerHeight="10" refX="9" refY="3" orient="auto">
      <polygon points="0 0, 10 3, 0 6" fill="#666" />
    </marker>
  </defs>

  <g class="edges">
    <line x1="202" y1="40" x2="358.8388678224181" y2="293.72271138031067" stroke="#999" stroke-width="2" marker-end="url(#arrowhead)" />
    <line x1="202" y1="40" x2="597.9126040435959" y2="444.20879365102866" stroke="#999" stroke-width="2" marker-end="url(#arrowhead)" />
    <line x1="202" y1="40" x2="164.07883341000343" y2="580.6078505330003" stroke="#999" stroke-width="2" marker-end="url(#arrowhead)" />
    <line x1="202" y1="40" x2="597.4413092334095" y2="169.7262213548515" stroke="#999" stroke-width="2" marker-end="url(#arrowhead)" />
    <line x1="474" y1="185" x2="406.2798296921491" y2="293.7963391831047" stroke="#999" stroke-width="2" marker-end="url(#arrowhead)" />
    <line x1="312" y1="185" x2="363.0405630621228" y2="291.4250038316603" stroke="#999" stroke-width="2" marker-end="url(#arrowhead)" />
    <line x1="312" y1="185" x2="596.15106521887" y2="446.02766085051127" stroke="#999" stroke-width="2" marker-end="url(#arrowhead)" />
    <line x1="814" y1="185" x2="425.0960409614565" y2="317.48871837466027" stroke="#999" stroke-width="2" marker-end="url(#arrowhead)" />
    <line x1="814" y1="185" x2="656.8462524400856" y2="437.7376707333419" stroke="#999" stroke-width="2" marker-end="url(#arrowhead)" />
    <line x1="857" y1="332" x2="671.7514097414132" y2="452.3499710549134" stroke="#999" stroke-width="2" marker-end="url(#arrowhead)" />
    <line x1="644" y1="185" x2="633.5424415028575" y2="430.5434735129054" stroke="#999" stroke-width="2" marker-end="url(#arrowhead)" />
    <line x1="644" y1="185" x2="193.5436402015334" y2="594.8873087607165" stroke="#999" stroke-width="2" marker-end="url(#arrowhead)" />
    <line x1="644" y1="185" x2="421.72690690988" y2="309.9489280468361" stroke="#999" stroke-width="2" marker-end="url(#arrowhead)" />
    <line x1="382.5" y1="332" x2="590.1292934026145" y2="454.1594035481246" stroke="#999" stroke-width="2" marker-end="url(#arrowhead)" />
    <line x1="382.5" y1="332" x2="187.56281108070598" y2="589.4226986857494" stroke="#999" stroke-width="2" marker-end="url(#arrowhead)" />
    <line x1="631.5" y1="478.5" x2="203.02325792112583" y2="611.4598391998206" stroke="#999" stroke-width="2" marker-end="url(#arrowhead)" />
    <line x1="844" y1="40" x2="652.4326687877599" y2="435.3048222897284" stroke="#999" stroke-width="2" marker-end="url(#arrowhead)" />
    <line x1="844" y1="40" x2="683.670911726325" y2="156.23858899841437" stroke="#999" stroke-width="2" marker-end="url(#arrowhead)" />
    <line x1="844" y1="40" x2="194.429737550997" y2="595.8913885819067" stroke="#999" stroke-width="2" marker-end="url(#arrowhead)" />
  </g>

  <g class="nodes">
    <g>
      <rect x="-1" y="19.5" width="82" height="41" fill="#1dd1a1" stroke="#333" stroke-width="2" rx="5" />
      <text x="40" y="40" text-anchor="middle" dominant-baseline="middle" fill="white" font-family="Arial, sans-serif" font-size="13.666666666666666" font-weight="bold">src</text>
    </g>
    <g>
      <rect x="161" y="19.5" width="82" height="41" fill="#48dbfb" stroke="#333" stroke-width="2" rx="5" />
      <text x="202" y="40" text-anchor="middle" dominant-baseline="middle" fill="white" font-family="Arial, sans-serif" font-size="13.666666666666666" font-weight="bold">strategies</text>
    </g>
    <g>
      <rect x="433" y="164.5" width="82" height="41" fill="#48dbfb" stroke="#333" stroke-width="2" rx="5" />
      <text x="474" y="185" text-anchor="middle" dominant-baseline="middle" fill="white" font-family="Arial, sans-serif" font-size="13.666666666666666" font-weight="bold">renderers</text>
    </g>
    <g>
      <rect x="271" y="164.5" width="82" height="41" fill="#48dbfb" stroke="#333" stroke-width="2" rx="5" />
      <text x="312" y="185" text-anchor="middle" dominant-baseline="middle" fill="white" font-family="Arial, sans-serif" font-size="13.666666666666666" font-weight="bold">persistence</text>
    </g>
    <g>
      <rect x="773" y="164.5" width="82" height="41" fill="#48dbfb" stroke="#333" stroke-width="2" rx="5" />
      <text x="814" y="185" text-anchor="middle" dominant-baseline="middle" fill="white" font-family="Arial, sans-serif" font-size="13.666666666666666" font-weight="bold">layout-engines</text>
    </g>
    <g>
      <rect x="814" y="310.5" width="86" height="43" fill="#48dbfb" stroke="#333" stroke-width="2" rx="5" />
      <text x="857" y="332" text-anchor="middle" dominant-baseline="middle" fill="white" font-family="Arial, sans-serif" font-size="14" font-weight="bold">exporters</text>
    </g>
    <g>
      <rect x="117" y="602.5" width="88" height="44" fill="#1dd1a1" stroke="#333" stroke-width="2" rx="5" />
      <text x="161" y="624.5" text-anchor="middle" dominant-baseline="middle" fill="white" font-family="Arial, sans-serif" font-size="14" font-weight="bold">value-objects</text>
    </g>
    <g>
      <rect x="595" y="160.5" width="98" height="49" fill="#48dbfb" stroke="#333" stroke-width="2" rx="5" />
      <text x="644" y="185" text-anchor="middle" dominant-baseline="middle" fill="white" font-family="Arial, sans-serif" font-size="14" font-weight="bold">services</text>
    </g>
    <g>
      <rect x="337.5" y="309.5" width="90" height="45" fill="#48dbfb" stroke="#333" stroke-width="2" rx="5" />
      <text x="382.5" y="332" text-anchor="middle" dominant-baseline="middle" fill="white" font-family="Arial, sans-serif" font-size="14" font-weight="bold">ports</text>
    </g>
    <g>
      <rect x="583.5" y="454.5" width="96" height="48" fill="#48dbfb" stroke="#333" stroke-width="2" rx="5" />
      <text x="631.5" y="478.5" text-anchor="middle" dominant-baseline="middle" fill="white" font-family="Arial, sans-serif" font-size="14" font-weight="bold">entities</text>
    </g>
    <g>
      <rect x="803" y="19.5" width="82" height="41" fill="#48dbfb" stroke="#333" stroke-width="2" rx="5" />
      <text x="844" y="40" text-anchor="middle" dominant-baseline="middle" fill="white" font-family="Arial, sans-serif" font-size="13.666666666666666" font-weight="bold">use-cases</text>
    </g>
    <g>
      <rect x="965" y="19.5" width="82" height="41" fill="#1dd1a1" stroke="#333" stroke-width="2" rx="5" />
      <text x="1006" y="40" text-anchor="middle" dominant-baseline="middle" fill="white" font-family="Arial, sans-serif" font-size="13.666666666666666" font-weight="bold">dto</text>
    </g>
  </g>

</svg>